<mxfile host="app.diagrams.net" modified="2020-06-21T05:18:00.030Z" agent="5.0 (Windows NT 10.0; Win64; x64) AppleWebKit/537.36 (KHTML, like Gecko) Chrome/83.0.4103.106 Safari/537.36" etag="GpNgy-0nOc7JgkUbFYgQ" version="13.3.0" type="github">
  <diagram id="gADoX4yVqoO9ku3lyOOH" name="Page-1">
    <mxGraphModel dx="1422" dy="713" grid="1" gridSize="10" guides="1" tooltips="1" connect="1" arrows="1" fold="1" page="1" pageScale="1" pageWidth="1169" pageHeight="1654" math="0" shadow="0">
      <root>
        <mxCell id="0" />
        <mxCell id="1" parent="0" />
        <mxCell id="FeAHMEQhg67V7eXxIfDz-22" value="" style="rounded=0;whiteSpace=wrap;html=1;" parent="1" vertex="1">
          <mxGeometry x="130" y="50" width="150" height="90" as="geometry" />
        </mxCell>
        <mxCell id="FeAHMEQhg67V7eXxIfDz-23" value="state" style="text;html=1;strokeColor=#000000;fillColor=none;align=center;verticalAlign=middle;whiteSpace=wrap;rounded=0;" parent="1" vertex="1">
          <mxGeometry x="50" y="70" width="50" height="20" as="geometry" />
        </mxCell>
        <mxCell id="FeAHMEQhg67V7eXxIfDz-24" value="request" style="text;html=1;strokeColor=#000000;fillColor=none;align=center;verticalAlign=middle;whiteSpace=wrap;rounded=0;" parent="1" vertex="1">
          <mxGeometry x="50" y="100" width="50" height="20" as="geometry" />
        </mxCell>
        <mxCell id="FeAHMEQhg67V7eXxIfDz-26" value="MLP" style="rounded=0;whiteSpace=wrap;html=1;strokeColor=#000000;" parent="1" vertex="1">
          <mxGeometry x="145" y="65" width="120" height="60" as="geometry" />
        </mxCell>
        <mxCell id="FeAHMEQhg67V7eXxIfDz-27" value="Actor" style="text;html=1;strokeColor=#b85450;fillColor=#f8cecc;align=center;verticalAlign=middle;whiteSpace=wrap;rounded=0;" parent="1" vertex="1">
          <mxGeometry x="240" y="50" width="40" height="20" as="geometry" />
        </mxCell>
        <mxCell id="FeAHMEQhg67V7eXxIfDz-29" value="" style="endArrow=classic;html=1;exitX=1;exitY=0.5;exitDx=0;exitDy=0;entryX=0;entryY=0.25;entryDx=0;entryDy=0;" parent="1" source="FeAHMEQhg67V7eXxIfDz-23" target="FeAHMEQhg67V7eXxIfDz-26" edge="1">
          <mxGeometry width="50" height="50" relative="1" as="geometry">
            <mxPoint x="700" y="420" as="sourcePoint" />
            <mxPoint x="750" y="370" as="targetPoint" />
          </mxGeometry>
        </mxCell>
        <mxCell id="FeAHMEQhg67V7eXxIfDz-30" value="" style="endArrow=classic;html=1;exitX=1;exitY=0.5;exitDx=0;exitDy=0;entryX=0;entryY=0.75;entryDx=0;entryDy=0;" parent="1" source="FeAHMEQhg67V7eXxIfDz-24" target="FeAHMEQhg67V7eXxIfDz-26" edge="1">
          <mxGeometry width="50" height="50" relative="1" as="geometry">
            <mxPoint x="700" y="420" as="sourcePoint" />
            <mxPoint x="750" y="370" as="targetPoint" />
          </mxGeometry>
        </mxCell>
        <mxCell id="FeAHMEQhg67V7eXxIfDz-33" value="" style="endArrow=classic;html=1;exitX=1;exitY=0.5;exitDx=0;exitDy=0;" parent="1" source="FeAHMEQhg67V7eXxIfDz-22" edge="1">
          <mxGeometry width="50" height="50" relative="1" as="geometry">
            <mxPoint x="700" y="420" as="sourcePoint" />
            <mxPoint x="320" y="95" as="targetPoint" />
          </mxGeometry>
        </mxCell>
        <mxCell id="FeAHMEQhg67V7eXxIfDz-34" value="action" style="text;html=1;strokeColor=#000000;fillColor=#ffffff;align=center;verticalAlign=middle;whiteSpace=wrap;rounded=0;" parent="1" vertex="1">
          <mxGeometry x="320" y="85" width="40" height="20" as="geometry" />
        </mxCell>
        <mxCell id="FeAHMEQhg67V7eXxIfDz-35" value="" style="rounded=0;whiteSpace=wrap;html=1;strokeColor=#000000;fillColor=#ffffff;" parent="1" vertex="1">
          <mxGeometry x="130" y="170" width="190" height="130" as="geometry" />
        </mxCell>
        <mxCell id="FeAHMEQhg67V7eXxIfDz-36" value="Critic" style="text;html=1;strokeColor=#82b366;fillColor=#d5e8d4;align=center;verticalAlign=middle;whiteSpace=wrap;rounded=0;" parent="1" vertex="1">
          <mxGeometry x="280" y="170" width="40" height="20" as="geometry" />
        </mxCell>
        <mxCell id="FeAHMEQhg67V7eXxIfDz-37" value="conv1d" style="rounded=0;whiteSpace=wrap;html=1;strokeColor=#000000;fillColor=#ffffff;" parent="1" vertex="1">
          <mxGeometry x="140" y="220" width="50" height="20" as="geometry" />
        </mxCell>
        <mxCell id="FeAHMEQhg67V7eXxIfDz-39" value="cat" style="text;html=1;strokeColor=#000000;fillColor=#ffffff;align=center;verticalAlign=middle;whiteSpace=wrap;rounded=0;" parent="1" vertex="1">
          <mxGeometry x="200" y="180" width="20" height="20" as="geometry" />
        </mxCell>
        <mxCell id="FeAHMEQhg67V7eXxIfDz-40" value="action" style="text;html=1;strokeColor=#000000;fillColor=#ffffff;align=center;verticalAlign=middle;whiteSpace=wrap;rounded=0;" parent="1" vertex="1">
          <mxGeometry x="60" y="220" width="40" height="20" as="geometry" />
        </mxCell>
        <mxCell id="FeAHMEQhg67V7eXxIfDz-41" value="" style="endArrow=classic;html=1;exitX=1;exitY=0.5;exitDx=0;exitDy=0;" parent="1" source="FeAHMEQhg67V7eXxIfDz-40" target="FeAHMEQhg67V7eXxIfDz-37" edge="1">
          <mxGeometry width="50" height="50" relative="1" as="geometry">
            <mxPoint x="710" y="420" as="sourcePoint" />
            <mxPoint x="760" y="370" as="targetPoint" />
          </mxGeometry>
        </mxCell>
        <mxCell id="FeAHMEQhg67V7eXxIfDz-42" value="state" style="text;html=1;strokeColor=#000000;fillColor=#ffffff;align=center;verticalAlign=middle;whiteSpace=wrap;rounded=0;" parent="1" vertex="1">
          <mxGeometry x="60" y="180" width="40" height="20" as="geometry" />
        </mxCell>
        <mxCell id="FeAHMEQhg67V7eXxIfDz-43" value="" style="endArrow=classic;html=1;exitX=1;exitY=0.5;exitDx=0;exitDy=0;entryX=0;entryY=0.5;entryDx=0;entryDy=0;" parent="1" source="FeAHMEQhg67V7eXxIfDz-42" target="FeAHMEQhg67V7eXxIfDz-39" edge="1">
          <mxGeometry width="50" height="50" relative="1" as="geometry">
            <mxPoint x="710" y="420" as="sourcePoint" />
            <mxPoint x="760" y="370" as="targetPoint" />
          </mxGeometry>
        </mxCell>
        <mxCell id="FeAHMEQhg67V7eXxIfDz-44" value="" style="edgeStyle=segmentEdgeStyle;endArrow=classic;html=1;exitX=1;exitY=0.5;exitDx=0;exitDy=0;entryX=0.5;entryY=1;entryDx=0;entryDy=0;" parent="1" source="FeAHMEQhg67V7eXxIfDz-37" target="FeAHMEQhg67V7eXxIfDz-39" edge="1">
          <mxGeometry width="50" height="50" relative="1" as="geometry">
            <mxPoint x="710" y="420" as="sourcePoint" />
            <mxPoint x="760" y="370" as="targetPoint" />
            <Array as="points">
              <mxPoint x="210" y="230" />
            </Array>
          </mxGeometry>
        </mxCell>
        <mxCell id="FeAHMEQhg67V7eXxIfDz-45" value="MLP" style="rounded=0;whiteSpace=wrap;html=1;strokeColor=#000000;fillColor=#ffffff;" parent="1" vertex="1">
          <mxGeometry x="240" y="180" width="30" height="60" as="geometry" />
        </mxCell>
        <mxCell id="FeAHMEQhg67V7eXxIfDz-47" value="" style="endArrow=classic;html=1;exitX=1;exitY=0.5;exitDx=0;exitDy=0;" parent="1" source="FeAHMEQhg67V7eXxIfDz-45" edge="1">
          <mxGeometry width="50" height="50" relative="1" as="geometry">
            <mxPoint x="710" y="420" as="sourcePoint" />
            <mxPoint x="340" y="210" as="targetPoint" />
          </mxGeometry>
        </mxCell>
        <mxCell id="FeAHMEQhg67V7eXxIfDz-48" value="output" style="text;html=1;strokeColor=#000000;fillColor=#ffffff;align=center;verticalAlign=middle;whiteSpace=wrap;rounded=0;" parent="1" vertex="1">
          <mxGeometry x="340" y="200" width="40" height="20" as="geometry" />
        </mxCell>
        <mxCell id="FeAHMEQhg67V7eXxIfDz-49" value="Lasso &lt;br&gt;regressor" style="text;html=1;strokeColor=#000000;fillColor=#ffffff;align=center;verticalAlign=middle;whiteSpace=wrap;rounded=0;" parent="1" vertex="1">
          <mxGeometry x="175" y="260" width="90" height="30" as="geometry" />
        </mxCell>
        <mxCell id="FeAHMEQhg67V7eXxIfDz-50" value="" style="endArrow=classic;html=1;exitX=1;exitY=0.5;exitDx=0;exitDy=0;" parent="1" source="FeAHMEQhg67V7eXxIfDz-49" edge="1">
          <mxGeometry width="50" height="50" relative="1" as="geometry">
            <mxPoint x="710" y="420" as="sourcePoint" />
            <mxPoint x="340" y="275" as="targetPoint" />
          </mxGeometry>
        </mxCell>
        <mxCell id="FeAHMEQhg67V7eXxIfDz-51" value="stream" style="text;html=1;strokeColor=#000000;fillColor=#ffffff;align=center;verticalAlign=middle;whiteSpace=wrap;rounded=0;" parent="1" vertex="1">
          <mxGeometry x="340" y="265" width="40" height="20" as="geometry" />
        </mxCell>
        <mxCell id="FeAHMEQhg67V7eXxIfDz-53" value="" style="edgeStyle=segmentEdgeStyle;endArrow=classic;html=1;exitX=1;exitY=0.25;exitDx=0;exitDy=0;entryX=0;entryY=0.75;entryDx=0;entryDy=0;" parent="1" source="FeAHMEQhg67V7eXxIfDz-42" target="FeAHMEQhg67V7eXxIfDz-49" edge="1">
          <mxGeometry width="50" height="50" relative="1" as="geometry">
            <mxPoint x="710" y="420" as="sourcePoint" />
            <mxPoint x="140" y="320" as="targetPoint" />
            <Array as="points">
              <mxPoint x="120" y="185" />
              <mxPoint x="120" y="283" />
              <mxPoint x="140" y="283" />
            </Array>
          </mxGeometry>
        </mxCell>
        <mxCell id="FeAHMEQhg67V7eXxIfDz-54" value="" style="edgeStyle=segmentEdgeStyle;endArrow=classic;html=1;entryX=0;entryY=0.25;entryDx=0;entryDy=0;" parent="1" source="FeAHMEQhg67V7eXxIfDz-40" target="FeAHMEQhg67V7eXxIfDz-49" edge="1">
          <mxGeometry width="50" height="50" relative="1" as="geometry">
            <mxPoint x="710" y="420" as="sourcePoint" />
            <mxPoint x="760" y="370" as="targetPoint" />
            <Array as="points">
              <mxPoint x="110" y="230" />
              <mxPoint x="110" y="268" />
            </Array>
          </mxGeometry>
        </mxCell>
        <mxCell id="FeAHMEQhg67V7eXxIfDz-55" value="" style="edgeStyle=segmentEdgeStyle;endArrow=classic;html=1;exitX=1;exitY=0.5;exitDx=0;exitDy=0;entryX=0;entryY=0.5;entryDx=0;entryDy=0;" parent="1" source="FeAHMEQhg67V7eXxIfDz-39" target="FeAHMEQhg67V7eXxIfDz-45" edge="1">
          <mxGeometry width="50" height="50" relative="1" as="geometry">
            <mxPoint x="710" y="420" as="sourcePoint" />
            <mxPoint x="760" y="370" as="targetPoint" />
            <Array as="points">
              <mxPoint x="230" y="190" />
              <mxPoint x="230" y="210" />
            </Array>
          </mxGeometry>
        </mxCell>
        <mxCell id="FeAHMEQhg67V7eXxIfDz-56" value="" style="edgeStyle=segmentEdgeStyle;endArrow=classic;html=1;exitX=1;exitY=0.5;exitDx=0;exitDy=0;entryX=0;entryY=0.5;entryDx=0;entryDy=0;" parent="1" source="FeAHMEQhg67V7eXxIfDz-34" target="FeAHMEQhg67V7eXxIfDz-40" edge="1">
          <mxGeometry width="50" height="50" relative="1" as="geometry">
            <mxPoint x="710" y="420" as="sourcePoint" />
            <mxPoint x="760" y="370" as="targetPoint" />
            <Array as="points">
              <mxPoint x="380" y="95" />
              <mxPoint x="380" y="160" />
              <mxPoint x="40" y="160" />
              <mxPoint x="40" y="230" />
            </Array>
          </mxGeometry>
        </mxCell>
      </root>
    </mxGraphModel>
  </diagram>
</mxfile>
